<svg xmlns="http://www.w3.org/2000/svg" version="1.1" xmlns:xlink="http://www.w3.org/1999/xlink" xmlns:svgjs="http://svgjs.dev/svgjs" viewBox="0 0 1422 800" opacity="1"><defs><linearGradient x1="50%" y1="0%" x2="50%" y2="100%" id="ssscribble-grad"><stop stop-color="hsl(230, 55%, 50%)" stop-opacity="1" offset="0%"></stop><stop stop-color="hsl(230, 55%, 70%)" stop-opacity="1" offset="100%"></stop></linearGradient></defs><g fill="none" stroke-width="1" stroke="url(#ssscribble-grad)" stroke-linecap="round"><path d="M1197.35 85.62C1070.8 103.48 972.36 120.84 917.88 137.93 915.47 155.38 963.3 173.28 1050.81 192.33 1164.86 212.75 1283.79 235.6 1388.61 261.87 1466.47 290.87 1503.95 324.75 1497.59 364.41 1449.63 407.81 1367.2 457.82 1262.46 514.58 1146.08 574.44 1033.44 640.04 936.03 710.05 813.46 846.32 810.21 975.13 895.63 1067.79 1035.94 1100.28 1164.44 1060.58 1245.37 948.19 1269.1 877.04 1277.38 799.73 1272.05 722.9 1255.44 656.51 1228.77 604.34 1195.16 573.07 1154.69 568.51 1111.37 591.67 1067.78 642.77 1021.27 718.08 977.12 812.06 936.86 916.2 895.79 1019.38 859.72 1111.82 829.42 1182.8 799.01 1224.08 774.66 1230.21 756.79 1199.18 738.93 1135.23 727.98 1046.11 723.6 942.87 719.1 836.53 720.89 739.11 728.28 660.44 734.84 607.41 745.9 584.41 760 591.66 771.19 628.06 782.78 687.22 792.29 761.59 794.95 846.09 791.43 929.71 778.71 1004.78 754.71 1068.02 717.95 1111.84 666.7 1133.94 530.7 1113.71 350.91 1015.96 163.78 874.76 31.53 711.86 -7.56 564.54 77.79 450.12 156.6 403.71 251.93 366.87 352.38 338.58 475.13 310.25 512.64 287.24 400.14 284.32 285.24 285.16 157.78 284.89 36.84 282.36 -57.56 280.81 -110.64 275.95 -111.77 267.09 -60.82 258.44 35.8 245.35 162.35 227.48 294.46 209.62 408.32 187.41 485.06 161.26 512.93 135.33 489.16 105.91 420.43 73.78 317.35 42.61 199.89 9.79 87.34 -23.44 -6.17 -54.15 -64.45 -83.43 -80.79 -109.56 -54.84 -130.82 9.62 -146.49 102.42 -154.75 213.75 -155.79 328.67 -147.42 434.76 -128.55 589.55 -69.19 630.25 26.84 573.51 142.91 447.61 237.29 316.09 292.68 220.38 275.71 185.84 235.01 166.04 173.88 159.95 94.71 164.78 3.7 180.73 -94.47 205.01 -192.06 236.68 -279.52 272.8 -350.3 310.72 -396.79 352.2 -414.12 392.62 -399.65 430.26 -353.52 469.09 -281.74 503.7 -189.57 533.15 -86.76 562.82 12.93 586.83 100.24 604.7 164.19 622.56 195.22 633.85 190.9 638.97 153.16 644.32 85.71 643.99 -1.46 638.85 -97.75 634.9 -195 627.56 -280.45 618.5 -345.68 612.98 -386.7 608.59 -398.23 607.88 -380.57 614.56 -336.21 628.79 -269.49 653.29 -187.16 688.71 -94.4 736.99 0.21 799.05 89.96 949.83 239.55 1132.64 321.61 1305.36 335.94 1408.93 290.1 1410.59 212.58 1293 131.38 1205.5 88.9 1107.9 51.77 1012.5 21.24 910.68 -16.09 937.26 -48.22 1075.81 -45.9 1198.44 -39.76 1324.43 -29.51 1434.4 -16.25 1510.03 -1.61 1539.05 14.76 1514.71 32.1 1441.51 49.81 1329.46 67.76 1197.35 85.62Q1197.35 85.62 1197.35 85.62" opacity="0.73"></path><path d="M1139.85 241.27C933.28 273.03 852.86 321.17 928.08 385.17 1117.09 450.67 1315.25 533.67 1430.73 631.44 1423.67 726.59 1297.9 827.03 1111.51 919.27 918.81 985.23 781.54 1018.12 721.28 1002.89 736.79 943.77 805.17 839.81 892.13 709.46 990.72 594.76 1065.49 518.16 1108.41 512.99 1134.67 592.85 1133.38 744.3 1114.34 929.22 1088.69 1088.79 1057.26 1171.62 1025.5 1141.68 993.75 1009.9 963.16 825.24 928.92 653.52 888.08 545.39 831.6 529.27 750.3 596.81 652.34 726.45 525.28 868.9 377.74 983.82 241.84 1054.74 127.87 1060.87 70.74 1010.78 89.38 915.56 189 796.27 348.63 674.34 501.96 550.68 599.25 445.34 583.02 361.78 444.27 289.06 228.04 234.01 26.77 191.24 -60.7 152.64 13.28 118.82 219.85 87.06 443.4 55.3 564.38 27.12 530.92 5.83 365.65 -11.28 162.35 -14 18.3 3.68 -14.41 32.2 78.19 85.24 249 159.95 446.39 232.95 605.02 306.64 693.9 360.24 708.65 368.71 662.96 324.93 588.53 220.94 493.49 72.96 414.13 -97.96 362.54 -250.88 323.86 -341.7 313.53 -343.65 324.01 -247.77 340.75 -88.31 367.42 89.9 399.18 221.68 430.93 251.62 466.27 175.22 509.42 27.91 558.83 -144.74 626.92 -278.12 720.62 -334.7 827.24 -306.26 958.9 -201.17 1102.88 -53.41 1226.27 109.99 1317.56 251.61 1344.45 352.34 1297.21 409.2 1176.24 421.9 1011.92 404.88 874.16 361.58 810.01 313.44 865.98 273.32 1033.29 230.59 1254.66 205.36 1432.2 199.75 1477.95 195.63 1363.46 209.51 1139.93 241.26Q1139.85 241.27 1139.85 241.27" opacity="0.82"></path><path d="M1083.4 571.87C897.11 599.66 800.09 640.82 822.54 692.19 951.51 741.33 1126.96 795.82 1280.99 848.49 1371.36 889.99 1365.81 918.08 1277.07 923.02 1129.24 905.03 965.08 856.12 820.63 776.58 708.57 685.85 646.28 585.83 626.6 497.21 643.28 448.11 679.03 448.19 716.96 509.47 763.71 625.77 796.87 779.71 810.86 938.23 824.54 1060.94 818.01 1116.58 790.22 1084.04 762.44 972.96 714.71 815.47 648.62 656.23 582.23 531.28 498.52 468.47 403.62 473.28 317.53 540.73 236.02 645.31 176.52 758.62 153.37 867.74 175.77 944.42 251.41 980.82 359.44 981.25 490.66 945.2 609.56 884.99 669.36 804.77 649.98 718.64 539.25 636.83 364.85 551.94 173.59 478.82 33.89 420.48 0.72 362.78 92.11 319.48 278.4 291.7 541.81 258.43 437.9 275.47 191.05 323.48 74.56 357.14 48.02 397.52 108.69 434.9 237.66 452.29 396.82 448.45 548.32 411.61 677.26 338.79 760.7 229.17 800.95 91.12 804.2 -51.1 783.29 -180.61 754.93 -268.43 714.83 -293.62 684.56 -246.64 671.35 -132.43 657.46 16.07 663.49 167.92 691.27 279.02 719.06 311.59 767.29 261.61 833.58 149.63 899.2 1.83 980.02 -136.29 1068.27 -232.23 1144.79 -273.16 1211.45 -248.32 1251.03 -170.3 1253.61 -52.75 1210.06 80.21 1117.54 207.36 1002.46 323.32 876.25 412.12 776.21 472.93 744.47 510.82 795.93 528.5 932.79 535.15 1117.3 530.63 1298.52 526.69 1409.33 529.96 1405.6 530.99 1282.39 544.09 1083.4 571.87Q1083.4 571.87 1083.4 571.87" opacity="0.14"></path><path d="M1024.85 713C809.57 747.45 870.4 792.21 1077.43 788.05 1209.81 773.94 1292.04 742.78 1312 693.47 1272.78 638.47 1184.69 570.39 1070.57 497.04 940.66 436.83 819.58 390.95 719.01 372.77 634.45 393.21 575.06 453.95 535.73 553.9 509.72 679.33 493.24 816.18 478.9 940.39 468.16 1027.43 452.46 1059.99 428.65 1026.68 404.83 935.3 374.02 805.62 339.84 666.05 309.27 539.68 282.42 448.95 267.15 404.3 265.21 408.4 285.37 453.34 333.23 524.44 397.09 615.47 483.98 704.42 582.67 779 665.57 841.49 725.42 878.79 739.85 892.13 695.08 888.54 591.49 867.41 441.65 835.75 280.33 795.62 140.44 753.31 63.3 714.31 72.62 673.4 171.35 639.74 334.85 615.92 572.61 585.68 597.89 568.83 406.72 567.18 265.35 557.56 162.84 539.47 117.42 506.35 129.79 456.3 196.04 384.81 296.04 291.1 419.39 185.32 541.82 68.12 649.19 -47.69 745.21 -143.59 817.45 -209.9 868.73 -231.47 907.45 -204.28 933.96 -127.12 955.06 -9.96 972.4 120.4 991.48 245.25 1015.29 336.65 1039.11 369.99 1066.53 342.28 1094.11 264.44 1117.94 149.42 1134.76 26.12 1137.32 -81.85 1127.32 -164.34 1094.31 -203.74 1035 -199.39 964.35 -156.4 876.11 -82.29 783.98 9.13 715.18 113.7 677.15 215.96 689.57 307.68 759.78 393.7 883.63 464.09 1042.45 519.47 1198.07 567.72 1317.67 605.4 1363.95 635.86 1322.31 663.94 1198.17 689.17 1024.93 712.99Q1024.85 713 1024.85 713" opacity="0.35"></path><path d="M968.1 508.61C828.72 528.46 726.34 536.32 679.06 532.72 693.03 528.72 759.42 512.79 858.92 485.96 977.76 459.64 1087.63 424.66 1171.44 384.89 1226.12 352.04 1241.15 322.28 1221.38 302.61 1172.39 301.65 1103.22 320.58 1025.62 364.07 938.74 431.12 856.61 521.11 784.95 627.98 714.43 738.84 656.78 845.24 612.52 932.29 569.56 987.21 538.03 1001.33 518.19 969.08 498.34 896.28 491.1 794.09 496.64 679.16 503.47 564.54 525.01 465.63 561.14 392.28 598.39 348.47 647.84 335.88 704.12 349.88 751.14 388.65 791.81 441.23 814.79 498.51 808.55 562.3 769.99 619.15 694.64 664.6 590.16 705.96 462.49 733.42 329.11 747.64 176.22 756.88 204.54 729.4 393.1 701.72 539.15 681.87 659.51 658.78 731.38 631.77 744.25 603.19 700.97 567.83 617.05 523.82 504.85 475.2 392.01 415.06 297.58 343.11 226.11 267.07 191.82 181.72 192.85 91.92 223.85 8.63 278.8 -67.47 346.45 -126.91 426.38 -161.58 505.27 -166.78 576.27 -137.52 647.94 -78.73 707.73 8.89 754.03 115.84 799.5 223.11 832.51 321.28 852.36 394.08 872.21 426.33 877.95 416.23 869.92 368.97 861.05 289.58 837.37 194.47 800.08 98.16 763.48 5.84 717.28 -66.34 667.94 -112.72 630.88 -135.55 604.42 -130.94 599.44 -103.97 624.42 -58.28 682.24 -0.03 774.38 63.4 889.48 133.76 1020.12 201.43 1146.86 262.14 1245.34 323.37 1299.91 375.41 1294.69 416.84 1230.49 457.87 1114.15 488.76 968.1 508.61Q968.1 508.61 968.1 508.61" opacity="0.69"></path><path d="M909.85 184.5C703.28 216.25 619.56 219.79 674.03 208.65 831.56 211.52 997.74 227.77 1106 282.95 1158.36 382.34 1139.24 532.8 1086.52 708.99 1011.97 858.63 947.59 941.62 915.84 911.68 884.08 779.9 887.95 596.56 907.47 430.18 905.16 313.52 874.71 268.83 780.73 279 630.85 334 430.98 395.35 250.18 435.36 172.43 478.07 243.28 486.53 449.85 454.77 673.4 423.01 796.56 354.05 781.07 256.31 648.81 161.27 484.79 50.35 362.35 -46.26 284.66 -98.05 279.24 -87.05 315.08 6.33 374.31 149.43 431.31 319.9 463.07 451.68 494.84 481.61 498.34 411.5 494.14 285.14 513.32 132.22 568.29 15.44 687.59 -42.31 851.64 -55.87 1049.35 -22.56 1204.91 29.59 1243.7 95.76 1133.45 152.73 909.93 184.49Q909.85 184.5 909.85 184.5" opacity="0.99"></path><path d="M852.43 97.99C688.9 121.81 584.38 154.1 557.46 198.44 604.48 250.32 694.74 325.67 789.45 425.65 890.1 534.24 959.04 657.28 990.91 772.19 1013.62 853.95 1010.27 887.48 986.45 854.17 962.64 762.79 920.61 634.04 856.62 501.13 783.47 377.2 677.37 283.41 545.5 224.14 361.81 185.64 296.47 174.28 507.43 147.29 680.66 123.47 809.81 84.44 866.26 40.21 848.36 4.21 778.24 -21.21 692.96 -19.8 593.49 8.24 519.32 76.77 480.83 183.24 449.35 298.7 447.07 417.79 470.89 509.17 494.71 542.48 542.36 518.61 615.11 454.31 694.88 356.85 806.22 259.07 936.91 181.7 1053.41 112.93 1148.78 74.76 1184.14 64.15 1145.16 61.09 1025.66 74.18 852.43 97.99Q852.43 97.99 852.43 97.99" opacity="0.45"></path><path d="M794.85 344.64C588.28 376.39 498.28 482.81 510.66 624.28 590.8 743.16 648.32 826.62 616.56 796.68 584.8 664.89 469.79 484.19 348.03 342.28 294.02 222.33 358.28 150.33 564.85 118.58 788.42 86.82 915.63 101.31 933.57 179.64 878.41 279.94 830.95 434.89 862.71 566.68 894.47 596.62 999.42 538.9 1096.2 461.65 1119.89 361.8 1018.42 312.88 794.85 344.64Q794.85 344.64 794.85 344.64" opacity="0.96"></path></g></svg>