<svg xmlns="http://www.w3.org/2000/svg" version="1.1" xmlns:xlink="http://www.w3.org/1999/xlink" xmlns:svgjs="http://svgjs.dev/svgjs" viewBox="0 0 1422 800"><defs><linearGradient x1="50%" y1="0%" x2="50%" y2="100%" id="ssscribble-grad"><stop stop-color="hsl(230, 55%, 50%)" stop-opacity="1" offset="0%"></stop><stop stop-color="hsl(230, 55%, 70%)" stop-opacity="1" offset="100%"></stop></linearGradient></defs><g fill="none" stroke-width="1" stroke="url(#ssscribble-grad)" stroke-linecap="round"><path d="M1160.52 766.92C1306.35 793.71 1409.43 817.43 1454.46 828.64 1440.02 827.94 1368.44 794.26 1256.34 714.57 1118.22 614.98 976.35 481.64 848.55 349.66 740.98 282.62 665.16 307.31 620.94 457.03 605.74 689.4 613.52 938.52 634.72 1084.4 670.7 1041.95 707.08 820.44 736.69 541.48 769.44 402.64 789.8 508.32 795.12 812.68 800.4 1092.28 790.19 1132.23 763.41 882.38 736.62 552.54 694.52 418.94 638.73 570.18 582.89 880.98 513.81 1104.26 434.64 1092.4 358.61 863.31 278.11 570.38 200.85 379.09 138.37 365.73 92.13 511.69 72.23 715.96 81.34 904.41 125.4 991.94 205.08 973.85 304.99 869.04 422.84 720.14 541.32 572.4 633.79 422.05 690.12 307.09 694.23 228.26 638.86 157.92 530.35 112.03 384.52 85.24 227.37 58.46 93.4 52.05 5.01 71.87 -30.03 100.18 -4.42 166.42 72.01 270.34 187.44 371.67 322.65 476.45 458.19 539.98 586.16 516.79 690.4 390.81 766.19 167.27 815.74 -72.1 839.13 -249.83 843.73 -264.39 830.71 -101.01 810.93 167.88 792.25 377.36 767.75 369.63 751.82 131.15 748.48 -189.97 744.33 -351.62 754.79 -223.54 781.57 106.26 808.36 356.19 850.21 321.77 904.87 52.53 958.72 -241.52 1023.38 -332.01 1094.3 -173.57 1159.41 125.02 1223.3 370.57 1277.6 440.94 1314.29 322.96 1329.34 105.6 1314.9 -91.66 1274.22 -206.29 1201.74 -192.52 1101.66 -84.2 994.01 89.05 882.83 266.51 787.03 412.52 730.23 538.62 719.86 621.04 765.24 672.25 863.97 711.55 1003.37 740.14 1160.52 766.92Q1160.52 766.92 1160.52 766.92" opacity="0.63"></path><path d="M1111.32 333.72C1240.6 357.16 1338.68 349.69 1394.13 316.11 1405.51 286.48 1370.5 241.56 1298 199.46 1196.34 188.42 1079.37 215.63 960.82 304.61 844.94 446.87 744.56 640.15 664.29 844.43 601.53 988.7 559.34 1030.92 533.82 933.19 521.29 618.91 529.99 496.86 528.68 888.09 526.78 1082.55 515 1065.98 491.56 833.76 468.12 539.18 434.14 375.7 391.84 432.26 350.87 666.35 304.37 926.3 256.7 1068.03 215.19 1030.89 178.95 839.55 154.18 595.57 143.58 386.07 152.12 289.74 184.16 311.04 233.72 428.84 306.3 583.42 397.78 722.21 491.93 836.23 587.88 891.74 672.36 897.75 727.68 869.6 749.34 819.01 728.92 766.35 664.43 705.94 561.6 660.16 432.32 636.72 294.44 613.28 172.56 613.3 82.65 629.51 29.93 637.96 23.4 645.92 59.31 633.45 131.26 586.83 229.27 492.72 339.92 342.58 458.11 167.68 569.68 -20.55 667.08 -169.07 752.51 -221.09 818.82 -152.57 867.37 32.5 902.57 252.07 925.39 422.4 940.76 442.41 949.19 283.53 956.65 10.26 967.12 -232.89 975.88 -298.55 991.08 -139.91 1014.52 154.64 1037.96 386.92 1068.52 408.33 1103.97 222.97 1137.69 -54.46 1172.87 -250.67 1205.06 -266.92 1230.3 -104.95 1246.08 146.79 1247.01 370.13 1234.58 492.29 1201.92 477.86 1147.21 364.32 1080.52 190.76 996.75 31.12 902.96 -75.01 816.71 -127.87 739.72 -116.48 684.95 -64.82 666.22 17.88 686.09 105.44 747.86 179.27 846.81 257.05 973.44 310.28 1111.32 333.72Q1111.32 333.72 1111.32 333.72" opacity="0.12"></path><path d="M1063.52 54.32C1175.5 74.41 1265.47 103.9 1325.51 146.49 1355.03 195.05 1349.7 266.69 1313.55 366.49 1251.2 476.38 1169.58 610.48 1077.79 753.51 978.22 870.23 881.15 950.34 792.42 961.8 709.28 895.98 638.99 753.4 581.98 563.93 533.25 397.51 495.44 302.19 466.05 331.1 441.71 486.13 421.6 721.66 403.18 945.01 386.2 1053.85 368.18 995.29 348.09 785.38 328 528.93 306.79 352.8 285.89 330.77 266.42 464.82 249.98 683.58 239.51 888.4 234.08 1010.79 238.81 1003.91 256.58 886.71 282.63 696.39 324.07 498.11 380.88 341.06 443.28 241.45 516.53 214.29 595.19 241.3 666.06 312.64 729.66 397.38 777.28 473.44 798.71 552.23 792.61 606.31 755.33 633.57 687.54 657.47 593.5 658.74 481.52 638.65 363.12 618.56 255.18 578.06 168.45 516.27 105.58 451.13 75.32 360.5 77.27 246.9 107.86 136.03 163.84 18.2 237.28 -84.09 325.13 -142.07 417.89 -143.75 508.47 -70.47 598.91 60.25 680.2 234.7 750.02 404.11 814.11 500.39 866.87 489.25 909.42 352.13 947.59 132.59 978.76 -97.59 1004.79 -239.4 1029.44 -225.12 1051.49 -53.06 1071.58 203.38 1091.67 413.29 1108.85 475.92 1122.09 374.83 1133.95 159.24 1139.32 -64.85 1135.98 -205.16 1128.24 -219.34 1108.57 -106 1075.45 81.32 1036.59 291.71 984.14 458.11 920.04 550.25 855.79 565.12 786.85 513.86 719.91 428.11 667.38 316.03 629.41 215.01 613.54 139.94 626.3 74.96 667.98 39.86 738.6 29.19 833.07 24.48 945.07 34.22 1063.46 54.31Q1063.52 54.32 1063.52 54.32" opacity="0.86"></path><path d="M1014.95 577.32C1241.97 662.71 1163.68 861.63 958.11 608.33 807.02 361.78 680.51 244.53 588.98 450.93 505.91 826.53 448.53 1007.05 415.05 736.75 381.57 346.99 375.16 314.39 400.2 612.29 433.7 921.12 507.96 935.81 615.17 720.78 712.99 418.64 805.2 214.8 851.91 130.65 820.27 115.26 707.24 120.01 529.95 86.53 335.18 53.05 190.97 -15.49 129.12 -58.12 144.34 -31.99 230.52 119.58 349.5 377.83 492.04 548.99 622.8 498.78 722.96 165.41 818.97 -157.03 885.16 -138 918.64 251.75 952.12 522.05 949.72 355.11 911.74 4.04 869.61 -177.8 791.1 -25.04 692.45 265.39 617.35 534.32 566.68 643.08 576.01 645.61 662.4 583.87 820.18 543.84 1014.95 577.32Q1014.95 577.32 1014.95 577.32" opacity="0.35"></path><path d="M966.52 688.73C1112.35 715.51 1210.75 691.97 1250.53 605.14 1240.33 502.53 1182.92 344.65 1101.17 206.22 999.28 193.66 899.94 348.5 819.51 646.12 738.25 900.04 680.81 938.23 654.02 688.38 627.24 358.53 633.64 221.82 668.48 341.01 702.49 614.41 760.03 835.41 826.81 903.19 873.46 831.78 902.46 677.8 893.02 533.68 833.6 382.48 724.35 288.86 578.52 262.07 421.36 235.29 293.02 277.87 213.97 382.65 179.01 480.35 195.88 592.53 247.17 628.83 324.47 525.94 409.55 276.53 483.53 -16.49 561.32 -155.31 618.15 -29.46 644.93 300.38 671.72 550.23 665.92 522.9 634.56 288.61 607 10.62 563.72 -115.8 521.53 -68.13 505.35 105.4 516.88 305.08 571.48 454.11 670.17 587.36 809.36 661.94 966.52 688.73Q966.52 688.73 966.52 688.73" opacity="0.08"></path><path d="M918.02 130.01C1030 150.1 1115.97 136.06 1169.06 110.12 1196.77 108.01 1193.68 139.95 1168.82 241.44 1128.02 399.67 1079.14 612.94 1033.65 811.93 984.41 906.93 946.23 849.78 926.14 639.88 906 295.62 939.82 359.32 963.06 601.74 961.58 737.97 943.37 804.92 900.93 817.4 833.11 805.09 739 777.92 627.02 757.83 508.62 737.74 405.23 726.64 328.1 704.14 270.45 656.83 243.49 558.53 242.28 395.97 257.49 211.96 286.82 21.18 319.73 -94.33 357.34 -75.03 389.58 92.43 409.67 348.88 429.77 558.78 435.81 624.07 433 543.79 434.91 359.53 436.93 167.57 448.04 35.67 475.58 -39.48 523.84 -40.07 596.2 -3.14 688.05 57.6 799.57 109.91 917.96 130Q918.02 130.01 918.02 130.01" opacity="0.52"></path><path d="M869.52 198.01C1015.35 224.79 1104.28 379.9 1130.61 622.2 1129 806.08 1099.97 841.23 1073.18 591.38 1046.39 261.5 1026.92 119.15 993.43 169.64 931.99 333.81 821.35 449.73 675.52 422.95 518.35 396.16 401.35 231.73 346.48 32.46 315.18 -53.13 322.79 67.5 349.58 397.38 376.37 647.23 417.25 633.79 483.66 485.02 573.63 277.83 712.35 171.22 869.52 198.01Q869.52 198.01 869.52 198.01" opacity="0.37"></path></g></svg>